<?xml version="1.0" encoding="UTF-8" standalone="no"?>
<svg
   height="40"
   viewBox="0 0 20 20"
   width="40"
   fill="#000000"
   version="1.1"
   id="svg6"
   sodipodi:docname="insights.svg"
   inkscape:version="1.2 (dc2aedaf03, 2022-05-15)"
   xmlns:inkscape="http://www.inkscape.org/namespaces/inkscape"
   xmlns:sodipodi="http://sodipodi.sourceforge.net/DTD/sodipodi-0.dtd"
   xmlns:xlink="http://www.w3.org/1999/xlink"
   xmlns="http://www.w3.org/2000/svg"
   xmlns:svg="http://www.w3.org/2000/svg">
  <defs
     id="defs10">
    <linearGradient
       inkscape:collect="always"
       xlink:href="#linearGradient1389"
       id="linearGradient1391"
       x1="12"
       y1="2"
       x2="12"
       y2="21.995012"
       gradientUnits="userSpaceOnUse"
       gradientTransform="translate(-2.0000002,-1.999999)" />
    <linearGradient
       inkscape:collect="always"
       id="linearGradient1389">
      <stop
         style="stop-color:#ffc107;stop-opacity:1"
         offset="0"
         id="stop1393" />
      <stop
         style="stop-color:#ffd54f;stop-opacity:1"
         offset="1"
         id="stop1395" />
    </linearGradient>
  </defs>
  <sodipodi:namedview
     id="namedview8"
     pagecolor="#ffffff"
     bordercolor="#666666"
     borderopacity="1.0"
     inkscape:pageshadow="2"
     inkscape:pageopacity="0.0"
     inkscape:pagecheckerboard="0"
     showgrid="false"
     inkscape:zoom="8.3541667"
     inkscape:cx="-5.5062344"
     inkscape:cy="25.67581"
     inkscape:window-width="1920"
     inkscape:window-height="991"
     inkscape:window-x="-9"
     inkscape:window-y="-9"
     inkscape:window-maximized="1"
     inkscape:current-layer="svg6"
     width="28px"
     showguides="false"
     inkscape:showpageshadow="2"
     inkscape:deskcolor="#d1d1d1" />
  <path
     d="M 0,0 H 24 V 24 H 0 Z"
     fill="none"
     id="path2" />
  <path
     style="fill:#000000;fill-opacity:0;stroke-width:11.97"
     d="M 8.523991,17.819024 C 8.4129235,17.744177 8.260811,17.592064 8.185963,17.480996 8.0548335,17.286413 8.0498755,17.2319 8.0498755,15.984714 V 14.690371 L 7.6880485,14.426882 C 6.6596815,13.678006 5.706398,12.28707 5.3290225,10.984825 5.0922675,10.167832 5.0396705,9.698825 5.0737145,8.7082295 5.1120895,7.591652 5.2795605,6.9028475 5.744965,5.9474205 7.27749,2.8013039 10.854918,1.2961665 14.201111,2.3896516 c 2.201348,0.7193668 3.924278,2.5491736 4.540654,4.8223184 0.148685,0.5483395 0.16265,0.6938155 0.16662,1.735661 0.004,1.067688 -0.0058,1.173509 -0.161897,1.732203 -0.194618,0.696661 -0.564009,1.504206 -0.969843,2.120223 -0.329617,0.500327 -1.089444,1.32578 -1.528783,1.660824 l -0.297737,0.227058 v 1.295558 c 0,1.248452 -0.0049,1.302902 -0.136088,1.497499 -0.07485,0.111068 -0.22696,0.26318 -0.338028,0.338028 l -0.20194,0.136088 H 12 8.725931 Z"
     id="path883" />
  <path
     style="fill:#000000;fill-opacity:0;stroke-width:11.97"
     d="M 8.523991,17.819024 C 8.4129235,17.744177 8.260811,17.592064 8.185963,17.480996 8.0548335,17.286413 8.0498755,17.2319 8.0498755,15.984714 V 14.690371 L 7.6880485,14.426882 C 6.6596815,13.678006 5.706398,12.28707 5.3290225,10.984825 5.0922675,10.167832 5.0396705,9.698825 5.0737145,8.7082295 5.1120895,7.591652 5.2795605,6.9028475 5.744965,5.9474205 7.27749,2.8013039 10.854918,1.2961665 14.201111,2.3896516 c 2.201348,0.7193668 3.924278,2.5491736 4.540654,4.8223184 0.148685,0.5483395 0.16265,0.6938155 0.16662,1.735661 0.004,1.067688 -0.0058,1.173509 -0.161897,1.732203 -0.194618,0.696661 -0.564009,1.504206 -0.969843,2.120223 -0.329617,0.500327 -1.089444,1.32578 -1.528783,1.660824 l -0.297737,0.227058 v 1.295558 c 0,1.248452 -0.0049,1.302902 -0.136088,1.497499 -0.07485,0.111068 -0.22696,0.26318 -0.338028,0.338028 l -0.20194,0.136088 H 12 8.725931 Z"
     id="path922" />
  <path
     d="m 6.9999998,18.999999 c 0,0.5 0.4,1 1.0000004,1 H 12 c 0.6,0 1,-0.5 1,-1 v -1 H 6.9999998 Z M 10,9.859375e-7 C 6.0999998,9.859375e-7 2.9999998,3.100001 2.9999998,7.0000009 c 0,2.4000001 1.2,4.5000001 3,5.6999991 V 15 c 0,0.5 0.4,1 1,1 H 13 c 0.6,0 1,-0.5 1,-1 V 12.7 C 15.8,11.400001 17,9.300001 17,7.000001 17,3.100001 13.9,9.859375e-7 10,9.859375e-7 Z"
     id="path4"
     style="fill:url(#linearGradient1391);fill-opacity:1" />
</svg>
