<?xml version="1.0" encoding="UTF-8" standalone="no"?>
<svg
   height="640"
   viewBox="0 0 640 640"
   width="640"
   fill="#000000"
   version="1.1"
   id="svg6"
   sodipodi:docname="ion-finances.svg"
   inkscape:version="1.1 (c68e22c387, 2021-05-23)"
   inkscape:export-filename="C:\Projects\images\ion-finances-logo.png"
   inkscape:export-xdpi="96"
   inkscape:export-ydpi="96"
   xmlns:inkscape="http://www.inkscape.org/namespaces/inkscape"
   xmlns:sodipodi="http://sodipodi.sourceforge.net/DTD/sodipodi-0.dtd"
   xmlns:xlink="http://www.w3.org/1999/xlink"
   xmlns="http://www.w3.org/2000/svg"
   xmlns:svg="http://www.w3.org/2000/svg"
   xmlns:rdf="http://www.w3.org/1999/02/22-rdf-syntax-ns#"
   xmlns:cc="http://creativecommons.org/ns#"
   xmlns:dc="http://purl.org/dc/elements/1.1/">
  <metadata
     id="metadata12">
    <rdf:RDF>
      <cc:Work
         rdf:about="">
        <dc:format>image/svg+xml</dc:format>
        <dc:type
           rdf:resource="http://purl.org/dc/dcmitype/StillImage" />
      </cc:Work>
    </rdf:RDF>
  </metadata>
  <defs
     id="defs10">
    <linearGradient
       inkscape:collect="always"
       xlink:href="#linearGradient844"
       id="linearGradient846"
       x1="511.58398"
       y1="214.5"
       x2="511.58398"
       y2="734.03149"
       gradientUnits="userSpaceOnUse"
       gradientTransform="matrix(0.7804878,0,0,0.7804878,-79.60975,-79.609764)" />
    <linearGradient
       inkscape:collect="always"
       id="linearGradient844">
      <stop
         style="stop-color:#80cbc4;stop-opacity:1"
         offset="0"
         id="stop853" />
      <stop
         style="stop-color:#80adcb;stop-opacity:1"
         offset="1"
         id="stop855" />
    </linearGradient>
  </defs>
  <sodipodi:namedview
     pagecolor="#ffffff"
     bordercolor="#666666"
     borderopacity="1"
     objecttolerance="10"
     gridtolerance="10"
     guidetolerance="10"
     inkscape:pageopacity="0"
     inkscape:pageshadow="2"
     inkscape:window-width="1920"
     inkscape:window-height="1001"
     id="namedview8"
     showgrid="false"
     inkscape:zoom="0.70710678"
     inkscape:cx="94.752309"
     inkscape:cy="170.41273"
     inkscape:window-x="-9"
     inkscape:window-y="-9"
     inkscape:window-maximized="1"
     inkscape:current-layer="svg6"
     inkscape:document-rotation="0"
     inkscape:pagecheckerboard="0"
     width="640px" />
  <path
     d="M 0,0 H 1024 V 1024 H 0 Z"
     fill="none"
     id="path2"
     style="stroke-width:42.6667" />
  <path
     id="path4"
     style="opacity:0.991125;fill:url(#linearGradient846);fill-opacity:1;stroke-width:33.3008"
     d="M 319.95884,5.7222934e-6 A 39.02439,39.02439 0 0 0 280.97561,39.024396 39.02439,39.02439 0 0 0 320,78.048786 39.02439,39.02439 0 0 0 359.02439,39.024396 39.02439,39.02439 0 0 0 320,5.7222934e-6 a 39.02439,39.02439 0 0 0 -0.0412,0 z M 319.6753,87.804886 a 65.365852,13.268293 0 0 0 -57.17073,7.21951 c -59.5387,16.141084 -106.01676,56.591834 -106.01676,117.268294 0,76.92488 63.57852,115.24943 156.4878,137.56097 83.25203,19.98049 99.90244,49.29091 99.90244,80.26067 0,22.97756 -16.29089,59.57623 -89.88568,59.57623 -68.59968,0 -95.58994,-30.62273 -99.25304,-69.91769 h -73.23476 c 3.76073,68.63344 52.47644,108.59598 111.47866,124.4878 a 71.284552,15.349594 0 0 0 62.30945,7.93446 71.284552,15.349594 0 0 0 59.05641,-6.76373 c 59.87692,-14.28371 106.14634,-51.12685 106.14634,-115.64328 0,-94.57431 -80.89492,-126.88911 -156.48781,-146.53659 -75.59278,-19.64747 -99.90243,-39.97397 -99.90243,-71.60975 0,-36.29788 33.60884,-61.59299 89.88718,-61.59299 59.27547,0 81.25344,28.29319 83.25153,69.9192 h 73.62652 C 477.60824,164.38465 444.28555,113.45906 378.73171,94.958846 a 65.365852,13.268293 0 0 0 -5.46342,-1.75609 65.365852,13.268293 0 0 0 -0.3247,-0.12958 h -0.0671 a 65.365852,13.268293 0 0 0 -52.16159,-5.26829 65.365852,13.268293 0 0 0 -1.03964,0 z m 0.28354,474.146334 A 39.02439,39.02439 0 0 0 280.97561,600.97561 39.02439,39.02439 0 0 0 320,640 39.02439,39.02439 0 0 0 359.02439,600.97561 39.02439,39.02439 0 0 0 320,561.95122 a 39.02439,39.02439 0 0 0 -0.0412,0 z" />
</svg>
