<?xml version="1.0" encoding="UTF-8" standalone="no"?>
<!-- Created with Inkscape (http://www.inkscape.org/) -->

<svg
   xmlns:dc="http://purl.org/dc/elements/1.1/"
   xmlns:cc="http://creativecommons.org/ns#"
   xmlns:rdf="http://www.w3.org/1999/02/22-rdf-syntax-ns#"
   xmlns:svg="http://www.w3.org/2000/svg"
   xmlns="http://www.w3.org/2000/svg"
   xmlns:sodipodi="http://sodipodi.sourceforge.net/DTD/sodipodi-0.dtd"
   xmlns:inkscape="http://www.inkscape.org/namespaces/inkscape"
   width="256"
   height="256"
   viewBox="0 0 67.733332 67.733335"
   version="1.1"
   id="svg4528"
   inkscape:version="0.92.4 (5da689c313, 2019-01-14)"
   sodipodi:docname="ion-logo-3.svg">
  <defs
     id="defs4522" />
  <sodipodi:namedview
     id="base"
     pagecolor="#ffffff"
     bordercolor="#666666"
     borderopacity="1.0"
     inkscape:pageopacity="0.0"
     inkscape:pageshadow="2"
     inkscape:zoom="0.89642208"
     inkscape:cx="28.101479"
     inkscape:cy="17.01811"
     inkscape:document-units="px"
     inkscape:current-layer="layer1"
     showgrid="false"
     units="px"
     inkscape:window-width="1366"
     inkscape:window-height="705"
     inkscape:window-x="-8"
     inkscape:window-y="-8"
     inkscape:window-maximized="1"
     showguides="false" />
  <metadata
     id="metadata4525">
    <rdf:RDF>
      <cc:Work
         rdf:about="">
        <dc:format>image/svg+xml</dc:format>
        <dc:type
           rdf:resource="http://purl.org/dc/dcmitype/StillImage" />
        <dc:title />
      </cc:Work>
    </rdf:RDF>
  </metadata>
  <g
     inkscape:label="Camada 1"
     inkscape:groupmode="layer"
     id="layer1"
     transform="translate(0,-229.26666)">
    <path
       style="opacity:1;fill:#f2524f;fill-opacity:1;stroke:none;stroke-width:0;stroke-linejoin:miter;stroke-miterlimit:4;stroke-dasharray:none;stroke-dashoffset:0;stroke-opacity:1"
       d="M 128,0 A 127.99999,127.99999 0 0 0 58.408203,20.712891 33.999998,33.999998 0 0 1 88.460938,54.460938 33.999998,33.999998 0 0 1 88.15625,58.742188 79.999997,79.999997 0 0 1 128,48 79.999997,79.999997 0 0 1 205.20508,107.13672 33.999997,33.999997 0 0 1 232,94 33.999997,33.999997 0 0 1 253.03516,101.33594 127.99999,127.99999 0 0 0 128,0 Z"
       transform="matrix(0.26458333,0,0,0.26458333,0,229.26666)"
       id="path947" />
    <path
       style="opacity:1;fill:#f2e14f;fill-opacity:1;stroke:none;stroke-width:0;stroke-linejoin:miter;stroke-miterlimit:4;stroke-dasharray:none;stroke-dashoffset:0;stroke-opacity:1"
       d="M 20.712891,58.251953 A 127.99999,127.99999 0 0 0 0,128 a 127.99999,127.99999 0 0 0 20.712891,69.5918 33.999999,33.999999 0 0 1 33.748047,-30.05274 33.999999,33.999999 0 0 1 4.28125,0.30469 A 79.999997,79.999997 0 0 1 48,128 79.999997,79.999997 0 0 1 58.708984,88.152344 33.999998,33.999998 0 0 1 54.460938,88.460938 33.999998,33.999998 0 0 1 20.712891,58.251953 Z"
       transform="matrix(0.26458333,0,0,0.26458333,0,229.26666)"
       id="path945" />
    <path
       style="opacity:1;fill:#4f61f2;fill-opacity:1;stroke:none;stroke-width:0;stroke-linejoin:miter;stroke-miterlimit:4;stroke-dasharray:none;stroke-dashoffset:0;stroke-opacity:1"
       d="M 205.14648,148.82617 A 79.999997,79.999997 0 0 1 128,208 79.999997,79.999997 0 0 1 88.152344,197.29102 33.999999,33.999999 0 0 1 88.460938,201.53906 33.999999,33.999999 0 0 1 58.251953,235.28711 127.99999,127.99999 0 0 0 128,256 127.99999,127.99999 0 0 0 253.14453,154.625 33.999997,33.999997 0 0 1 232,162 33.999997,33.999997 0 0 1 205.14648,148.82617 Z"
       transform="matrix(0.26458333,0,0,0.26458333,0,229.26666)"
       id="path867" />
    <circle
       style="opacity:1;fill:#f2524f;fill-opacity:1;stroke:none;stroke-width:0;stroke-linejoin:miter;stroke-miterlimit:4;stroke-dasharray:none;stroke-dashoffset:0;stroke-opacity:1"
       id="path5075"
       cx="61.383331"
       cy="263.13333"
       r="6.3499999" />
    <rect
       style="opacity:1;fill:#000000;fill-opacity:0;stroke:#000000;stroke-width:0;stroke-linejoin:miter;stroke-miterlimit:4;stroke-dasharray:none;stroke-dashoffset:0;stroke-opacity:0"
       id="rect5098"
       width="14.792737"
       height="21.754026"
       x="16.533058"
       y="242.17986" />
    <circle
       style="opacity:1;fill:#4f61f2;fill-opacity:1;stroke:none;stroke-width:0;stroke-linejoin:miter;stroke-miterlimit:4;stroke-dasharray:none;stroke-dashoffset:0;stroke-opacity:1"
       id="path5075-0"
       cx="14.409208"
       cy="282.59079"
       r="6.3499999" />
    <circle
       style="opacity:1;fill:#f2e14f;fill-opacity:1;stroke:none;stroke-width:0;stroke-linejoin:miter;stroke-miterlimit:4;stroke-dasharray:none;stroke-dashoffset:0;stroke-opacity:1"
       id="path5075-8"
       cx="14.409208"
       cy="243.67587"
       r="6.3499999" />
    <ellipse
       style="opacity:1;fill:#f2524f;fill-opacity:1;stroke:none;stroke-width:0;stroke-linejoin:miter;stroke-miterlimit:4;stroke-dasharray:none;stroke-dashoffset:0;stroke-opacity:1"
       id="path822"
       cx="100.94296"
       cy="311.315"
       rx="0.59030974"
       ry="0.44273227" />
  </g>
</svg>
