<?xml version="1.0" encoding="UTF-8" standalone="no"?>
<!-- Created with Inkscape (http://www.inkscape.org/) -->

<svg
   width="256"
   height="256"
   viewBox="0 0 67.733332 67.733333"
   version="1.1"
   id="svg5"
   inkscape:version="1.2 (dc2aedaf03, 2022-05-15)"
   sodipodi:docname="ion-logo-4.svg"
   inkscape:export-filename="ion-logo-4.1.png"
   inkscape:export-xdpi="170.66667"
   inkscape:export-ydpi="170.66667"
   xmlns:inkscape="http://www.inkscape.org/namespaces/inkscape"
   xmlns:sodipodi="http://sodipodi.sourceforge.net/DTD/sodipodi-0.dtd"
   xmlns="http://www.w3.org/2000/svg"
   xmlns:svg="http://www.w3.org/2000/svg">
  <sodipodi:namedview
     id="namedview7"
     pagecolor="#ffffff"
     bordercolor="#666666"
     borderopacity="1.0"
     inkscape:showpageshadow="2"
     inkscape:pageopacity="0.0"
     inkscape:pagecheckerboard="0"
     inkscape:deskcolor="#d1d1d1"
     inkscape:document-units="px"
     showgrid="false"
     showguides="true"
     inkscape:zoom="1"
     inkscape:cx="44"
     inkscape:cy="117.5"
     inkscape:window-width="1920"
     inkscape:window-height="991"
     inkscape:window-x="-9"
     inkscape:window-y="-9"
     inkscape:window-maximized="1"
     inkscape:current-layer="layer2">
    <inkscape:grid
       type="xygrid"
       id="grid4213" />
  </sodipodi:namedview>
  <defs
     id="defs2" />
  <g
     inkscape:label="Camada 1"
     inkscape:groupmode="layer"
     id="layer1"
     style="display:inline" />
  <g
     inkscape:groupmode="layer"
     id="layer2"
     inkscape:label="Camada 2">
    <path
       id="path3485"
       style="fill:#2196f3;stroke:none;stroke-width:2.74296;fill-opacity:1"
       inkscape:transform-center-x="-19.621253"
       inkscape:transform-center-y="13.076034"
       d="M 49.039383 41.380936 A 16.933332 16.933332 0 0 1 33.866666 50.799999 A 16.933332 16.933332 0 0 1 32.789213 50.755558 A 12.7 12.7 0 0 1 32.169612 62.213256 A 12.7 12.7 0 0 1 27.181803 67.049653 A 33.86829 33.86829 0 0 0 50.80155 63.197692 A 33.86829 33.86829 0 0 0 65.9753 44.639652 A 12.7 12.7 0 0 1 59.266666 46.566666 A 12.7 12.7 0 0 1 49.039383 41.380936 z " />
    <path
       id="path3485-6"
       style="fill:#ffc107;stroke:none;stroke-width:2.74296;fill-opacity:1"
       inkscape:transform-center-x="19.618627"
       inkscape:transform-center-y="11.329853"
       d="M 5.6906622 -13.077484 A 33.868286 33.868286 0 0 0 29.328051 -16.932558 A 33.868286 33.868286 0 0 0 44.492529 -35.486913 A 12.7 12.7 0 0 1 37.793485 -33.566276 A 12.7 12.7 0 0 1 27.566034 -38.751274 A 16.933332 16.933332 0 0 1 20.862727 -31.59803 A 16.933332 16.933332 0 0 1 11.325341 -29.371125 A 12.7 12.7 45 0 1 12.39748 -24.264711 A 12.7 12.7 45 0 1 5.6906622 -13.077484 z "
       transform="rotate(120)" />
    <path
       id="path3485-6-5"
       style="fill:#f44336;stroke:none;stroke-width:2.74296;fill-opacity:1"
       inkscape:transform-center-x="0.0026269492"
       inkscape:transform-center-y="-24.405885"
       d="M -16.881398 29.23944 A 33.868286 33.868286 0 0 0 -16.42605 28.418713 A 33.868286 33.868286 0 0 0 -14.160303 23.171408 A 12.7 12.7 0 0 1 -20.862938 25.094482 A 12.7 12.7 0 0 1 -31.096088 19.913757 A 16.933332 16.933332 0 0 1 -31.59803 20.862727 A 16.933332 16.933332 0 0 1 -47.341278 29.292706 A 12.7 12.7 45 0 1 -47.964204 40.743105 A 12.7 12.7 45 0 1 -52.954445 45.581003 A 33.868286 33.868286 0 0 0 -29.330545 41.726579 A 33.868286 33.868286 0 0 0 -17.359829 30.047436 A 33.868286 33.868286 0 0 0 -16.881398 29.23944 z "
       transform="rotate(-120)" />
    <circle
       style="display:inline;fill:#f44336;stroke:none;stroke-width:2.94737;fill-opacity:1"
       id="path4367"
       cx="59.266666"
       cy="33.866665"
       r="8.4666662" />
    <circle
       style="display:inline;fill:#ffc107;stroke:none;stroke-width:2.94737;fill-opacity:1"
       id="path4367-2-0"
       cx="-20.86274"
       cy="12.394417"
       r="8.4666662"
       transform="rotate(-120)" />
    <circle
       style="display:inline;fill:#2196f3;stroke:none;stroke-width:2.94737;fill-opacity:1"
       id="path4367-2"
       cx="37.7934"
       cy="-46.266182"
       r="8.4666662"
       transform="rotate(120)" />
  </g>
</svg>
